<?xml version="1.0" encoding="UTF-8" standalone="no"?>
<!DOCTYPE svg PUBLIC "-//W3C//DTD SVG 1.1//EN" "http://www.w3.org/Graphics/SVG/1.1/DTD/svg11.dtd">
<svg width="100%" height="100%" viewBox="0 0 493 360" version="1.1" xmlns="http://www.w3.org/2000/svg" xmlns:xlink="http://www.w3.org/1999/xlink" xml:space="preserve" xmlns:serif="http://www.serif.com/" style="fill-rule:evenodd;clip-rule:evenodd;stroke-linejoin:round;stroke-miterlimit:2;">
    <g id="Artboard1" transform="matrix(1,0,0,1,-6.30599,12.0237)">
        <rect x="6.306" y="-12.024" width="492.241" height="359.617" style="fill:none;"/>
        <g transform="matrix(1,0,0,1,0.305994,0.976341)">
            <path d="M198.051,31.219C198.051,48.212 184.275,61.987 167.283,61.987C150.29,61.987 136.515,48.212 136.515,31.219C136.515,14.226 150.29,0.45 167.283,0.45C184.275,0.45 198.051,14.226 198.051,31.219Z" style="fill:rgb(35,31,32);fill-rule:nonzero;"/>
            <path d="M362.39,31.219C362.39,48.212 348.614,61.987 331.621,61.987C314.628,61.987 300.853,48.212 300.853,31.219C300.853,14.226 314.628,0.45 331.621,0.45C348.614,0.45 362.39,14.226 362.39,31.219Z" style="fill:rgb(35,31,32);fill-rule:nonzero;"/>
            <path d="M221.76,144.88L140.497,64.701C137.42,61.263 126.396,52.575 115.158,52.575C104.172,52.575 96.516,58.729 90.603,65.286L25.27,128.368C20.681,132.029 12.356,144.015 12.356,155.92C12.356,168.428 19.912,178.001 26.458,184.234L93.439,250.578L93.8,310.304L93.87,310.31C93.828,310.786 93.8,311.265 93.8,311.751C93.8,321.347 102.309,329.127 112.805,329.127C123.301,329.127 131.356,322.931 131.356,313.336C131.356,312.222 131.69,309.551 131.471,308.496L131.706,230.455C131.741,229.965 131.757,229.471 131.764,228.972C131.899,218.452 126.877,216.552 122.089,211.954L77.511,169.133L140.497,106.148L157.147,122.437L201.264,166.055C204.51,168.804 207.961,173.482 215.38,175.422C224.569,177.823 232.982,168.047 231.534,159.514C230.604,154.037 225.562,149.631 221.76,144.88Z" style="fill:rgb(35,31,32);fill-rule:nonzero;"/>
            <path d="M276.944,144.88L358.209,64.701C361.285,61.263 372.309,52.575 383.547,52.575C394.533,52.575 402.188,58.729 408.101,65.286L473.435,128.368C478.023,132.029 486.349,144.015 486.349,155.92C486.349,168.428 478.793,178.001 472.247,184.234L405.266,250.578L404.904,310.304L404.835,310.31C404.876,310.786 404.904,311.265 404.904,311.751C404.904,321.347 396.396,329.127 385.9,329.127C375.405,329.127 367.349,322.931 367.349,313.336C367.349,312.222 367.015,309.551 367.234,308.496L367,230.455C366.965,229.965 366.948,229.471 366.941,228.972C366.805,218.452 371.828,216.552 376.615,211.954L421.192,169.133L358.209,106.148L341.558,122.437L297.441,166.055C294.195,168.804 290.744,173.482 283.324,175.422C274.137,177.823 265.724,168.047 267.172,159.514C268.102,154.037 273.145,149.631 276.944,144.88Z" style="fill:rgb(35,31,32);fill-rule:nonzero;"/>
            <path d="M302.937,170.785L302.508,171.178C302.002,171.605 301.42,172.163 300.746,172.81C297.742,175.689 293.202,180.041 285.469,182.061C283.919,182.467 282.329,182.673 280.742,182.673C274.937,182.673 269.274,179.911 265.206,175.096C261.017,170.135 259.116,163.641 260.118,157.728C261.183,151.463 265.241,146.83 268.825,142.739C269.753,141.68 270.63,140.681 271.414,139.699L271.676,139.37L304.706,106.781L193.453,106.781L226.461,139.346L226.744,139.699C227.529,140.681 228.404,141.68 229.335,142.742C232.916,146.83 236.976,151.463 238.038,157.728C239.043,163.641 237.14,170.135 232.951,175.096C228.885,179.911 223.222,182.673 217.415,182.673C215.83,182.673 214.239,182.467 212.689,182.061C204.956,180.041 200.416,175.689 197.411,172.808C196.738,172.163 196.157,171.605 195.659,171.184L168.55,144.414L168.55,252.478L330.535,252.478L330.535,143.497L302.937,170.785Z" style="fill:rgb(35,31,32);fill-rule:nonzero;"/>
        </g>
    </g>
</svg>
