<?xml version="1.0" encoding="UTF-8" standalone="no"?>
<!DOCTYPE svg PUBLIC "-//W3C//DTD SVG 1.1//EN" "http://www.w3.org/Graphics/SVG/1.1/DTD/svg11.dtd">
<svg width="100%" height="100%" viewBox="0 0 505 384" version="1.1" xmlns="http://www.w3.org/2000/svg" xmlns:xlink="http://www.w3.org/1999/xlink" xml:space="preserve" xmlns:serif="http://www.serif.com/" style="fill-rule:evenodd;clip-rule:evenodd;stroke-linejoin:round;stroke-miterlimit:2;">
    <g id="Artboard1" transform="matrix(1,0,0,1,0,12.817)">
        <rect x="0" y="-12.817" width="504.011" height="383.757" style="fill:none;"/>
        <g transform="matrix(1,0,0,1,0,0.182965)">
            <path d="M412.94,100.206L445.925,327.54L59.446,327.54L92.43,100.206L412.94,100.206ZM252.687,24.279C262.639,24.279 270.735,32.375 270.735,42.327C270.735,52.28 262.639,60.376 252.687,60.376C242.734,60.376 234.636,52.28 234.636,42.327C234.636,32.375 242.734,24.279 252.687,24.279ZM436.718,76.104L436.297,73.215L281.581,73.215C290.02,65.323 294.978,54.201 294.978,42.327C294.978,19.007 276.006,0.034 252.687,0.034C229.366,0.034 210.393,19.007 210.393,42.327C210.393,54.201 215.351,65.323 223.789,73.215L69.072,73.215L28.256,354.53L477.114,354.53L436.718,76.104Z" style="fill:rgb(35,31,32);fill-rule:nonzero;"/>
            <path d="M156.035,250.353L170.311,228.626L184.586,250.353L200.209,250.353L178.032,216.864L198.233,186.068L182.97,186.068L170.311,205.192L157.651,186.068L142.567,186.068L162.679,216.864L140.502,250.353L156.035,250.353Z" style="fill:rgb(35,31,32);fill-rule:nonzero;"/>
            <path d="M215.921,250.353L230.196,228.626L244.472,250.353L260.094,250.353L237.918,216.864L258.119,186.068L242.856,186.068L230.196,205.192L217.537,186.068L202.453,186.068L222.565,216.864L200.388,250.353L215.921,250.353Z" style="fill:rgb(35,31,32);fill-rule:nonzero;"/>
            <path d="M278.5,250.353L278.5,235.449L284.156,229.344L296.008,250.353L309.296,250.353L292.147,220.815L308.129,203.756L292.955,203.756L278.5,220.186L278.5,186.068L266.2,186.068L266.2,250.353L278.5,250.353Z" style="fill:rgb(35,31,32);fill-rule:nonzero;"/>
            <path d="M315.401,254.843C315.401,258.973 317.017,262.385 320.339,265.168C323.661,267.861 329.228,269.208 337.129,269.208C341.259,269.208 344.76,268.759 347.454,267.861C350.237,267.053 352.392,265.796 354.008,264.27C355.714,262.744 356.971,260.589 357.869,257.895C358.767,255.112 359.216,251.072 359.216,245.505L359.216,203.756L347.723,203.756L347.723,210.31C343.952,205.282 339.194,202.768 333.448,202.768C327.881,202.768 323.212,204.833 319.441,208.963C315.67,213.093 313.785,219.019 313.785,226.83C313.785,233.025 315.222,238.233 318.095,242.453C321.776,247.75 326.714,250.353 332.999,250.353C338.565,250.353 343.234,247.84 347.005,242.722L346.915,249.545C346.915,252.329 346.736,254.214 346.377,255.202C345.748,256.638 344.94,257.716 343.863,258.344C342.246,259.332 339.822,259.781 336.68,259.781C334.166,259.781 332.28,259.332 331.113,258.434C330.305,257.806 329.767,256.638 329.497,255.022L315.401,253.316L315.401,254.843ZM329.318,215.607C331.203,213.363 333.627,212.195 336.59,212.195C339.643,212.195 342.157,213.363 344.132,215.697C346.107,218.031 347.095,221.623 347.095,226.381C347.095,231.05 346.017,234.552 343.952,236.886C341.887,239.22 339.373,240.387 336.411,240.387C333.537,240.387 331.203,239.22 329.318,236.976C327.432,234.641 326.445,231.05 326.445,226.112C326.445,221.443 327.432,217.942 329.318,215.607Z" style="fill:rgb(35,31,32);fill-rule:nonzero;"/>
        </g>
    </g>
</svg>
