<?xml version="1.0" encoding="UTF-8" standalone="no"?>
<!DOCTYPE svg PUBLIC "-//W3C//DTD SVG 1.1//EN" "http://www.w3.org/Graphics/SVG/1.1/DTD/svg11.dtd">
<svg width="100%" height="100%" viewBox="0 0 483 405" version="1.1" xmlns="http://www.w3.org/2000/svg" xmlns:xlink="http://www.w3.org/1999/xlink" xml:space="preserve" xmlns:serif="http://www.serif.com/" style="fill-rule:evenodd;clip-rule:evenodd;stroke-linejoin:round;stroke-miterlimit:2;">
    <g id="Artboard1" transform="matrix(1,0,0,1,-7.78233,18.3312)">
        <rect x="7.782" y="-18.331" width="482.094" height="404.006" style="fill:none;"/>
        <clipPath id="_clip1">
            <rect x="7.782" y="-18.331" width="482.094" height="404.006"/>
        </clipPath>
        <g clip-path="url(#_clip1)">
            <g transform="matrix(1,0,0,1,0.782334,0.668817)">
                <path d="M332.107,54.154L254.973,107.813L177.835,54.154L254.973,0.49L332.107,54.154Z" style="fill:rgb(35,31,32);fill-rule:nonzero;"/>
                <path d="M249.244,201.661L171.541,147.599L171.541,63.138L249.244,117.196L249.244,201.661Z" style="fill:rgb(35,31,32);fill-rule:nonzero;"/>
                <path d="M259.665,202.323L337.74,148.004L337.74,63.138L259.665,117.454L259.665,202.323Z" style="fill:rgb(35,31,32);fill-rule:nonzero;"/>
                <path d="M53.971,105.26C53.971,105.26 57.883,88.141 73.532,88.141C73.532,88.141 92.604,89.607 92.604,107.21L92.604,194.745C92.604,194.745 96.517,203.552 100.435,209.909L144.93,267.127C144.93,267.127 158.133,273.969 158.623,260.278L127.326,217.242C127.326,217.242 118.035,201.105 130.261,188.392C130.261,188.392 143.953,179.591 156.178,190.344L228.07,282.283C228.07,282.283 233.936,292.066 233.936,308.203L233.936,385.469L119.99,385.469L119.99,359.064C119.99,359.064 100.435,323.854 65.219,280.818C65.219,280.818 53.971,270.057 53.971,252.457L53.971,105.26Z" style="fill:rgb(35,31,32);fill-rule:nonzero;"/>
                <path d="M454.978,105.26C454.978,105.26 451.068,88.141 435.413,88.141C435.413,88.141 416.346,89.607 416.346,107.21L416.346,194.745C416.346,194.745 412.429,203.552 408.52,209.909L364.016,267.127C364.016,267.127 350.814,273.969 350.323,260.278L381.626,217.242C381.626,217.242 390.921,201.105 378.693,188.392C378.693,188.392 364.995,179.591 352.771,190.344L280.887,282.283C280.887,282.283 275.015,292.066 275.015,308.203L275.015,385.469L388.959,385.469L388.959,359.064C388.959,359.064 408.52,323.854 443.735,280.818C443.735,280.818 454.978,270.057 454.978,252.457L454.978,105.26Z" style="fill:rgb(35,31,32);fill-rule:nonzero;"/>
            </g>
        </g>
    </g>
</svg>
