<?xml version="1.0" encoding="UTF-8" standalone="no"?>
<!DOCTYPE svg PUBLIC "-//W3C//DTD SVG 1.1//EN" "http://www.w3.org/Graphics/SVG/1.1/DTD/svg11.dtd">
<svg width="100%" height="100%" viewBox="0 0 443 430" version="1.1" xmlns="http://www.w3.org/2000/svg" xmlns:xlink="http://www.w3.org/1999/xlink" xml:space="preserve" xmlns:serif="http://www.serif.com/" style="fill-rule:evenodd;clip-rule:evenodd;stroke-linejoin:round;stroke-miterlimit:2;">
    <g id="Artboard1" transform="matrix(1,0,0,1,-13.3391,-0.65581)">
        <rect x="13.339" y="0.656" width="442.754" height="429.666" style="fill:none;"/>
        <g transform="matrix(1,0,0,1,0.339117,0.65581)">
            <path d="M199.988,380.337C199.897,380.911 199.841,381.697 199.86,382.64C199.901,386.282 200.76,391.468 203.203,396C205.218,399.726 208.484,402.926 213.584,403.777C214.743,403.968 215.954,404.067 217.202,404.05C225.708,403.939 230.708,400.849 233.503,396.311C236.841,390.891 237.858,383.119 237.87,375.292L238.13,224.576C225.44,226.68 214.806,234.89 209.333,246.097C202.951,233.035 189.566,224.049 174.087,224.049C159.157,224.049 146.18,232.411 139.546,244.726C132.919,232.411 119.938,224.049 105.009,224.049C89.25,224.049 75.661,233.364 69.424,246.816C86.105,177.565 154.972,125.179 238.3,122.695L238.327,107.807L257.104,107.807L257.077,122.978C335.447,127.743 399.902,176.708 418.214,241.613C411.183,231.024 399.177,224.049 385.539,224.049C370.035,224.049 356.631,233.073 350.265,246.166C343.893,233.073 330.487,224.049 314.982,224.049C299.538,224.049 286.18,233.007 279.775,246.018C275.163,236.634 266.929,229.36 256.898,226.033L256.643,375.292C256.631,386.129 254.962,397.298 249.478,406.214C243.451,416.012 233.487,422.676 217.417,422.885C214.916,422.917 212.609,422.745 210.494,422.392C198.579,420.399 191.124,413.249 186.64,404.938C182.581,397.418 181.157,388.859 181.078,382.86C181.062,381.637 181.117,380.285 181.178,379.465L199.988,380.337Z" style="fill:rgb(35,31,32);fill-rule:nonzero;"/>
            <path d="M307.481,31.548C307.028,34.515 305.879,37.486 303.819,39.529C301.733,41.586 298.873,42.86 295.726,42.86C292.54,42.86 289.652,41.563 287.566,39.473L287.563,39.473C285.382,37.091 284.184,34.571 284.184,31.287C284.184,29.475 284.605,27.747 285.354,26.211C286.112,24.66 287.589,22.995 288.391,22.16L309.213,1.035C309.694,0.536 310.492,0.53 310.99,1.014C311.31,1.328 311.428,1.769 311.343,2.177L307.481,31.548Z" style="fill:rgb(35,31,32);"/>
            <path d="M277.89,83.572C277.435,86.54 276.288,89.512 274.229,91.553C272.146,93.612 269.284,94.886 266.133,94.886C262.952,94.886 260.061,93.591 257.978,91.497L257.972,91.497C255.794,89.117 254.591,86.599 254.591,83.312C254.591,81.499 255.017,79.777 255.763,78.236C256.523,76.687 258,75.021 258.795,74.184L279.623,53.059C280.108,52.565 280.903,52.554 281.4,53.04C281.715,53.353 281.836,53.795 281.755,54.204L277.89,83.572Z" style="fill:rgb(35,31,32);"/>
            <path d="M198.759,104.581C198.309,107.551 197.157,110.525 195.099,112.564C193.016,114.622 190.155,115.896 187.001,115.896C183.824,115.896 180.939,114.595 178.848,112.509C176.669,110.127 175.467,107.609 175.467,104.322C175.467,102.511 175.885,100.785 176.64,99.246C177.392,97.697 178.873,96.03 179.669,95.197L200.498,74.069C200.981,73.57 201.777,73.564 202.271,74.05C202.589,74.362 202.705,74.805 202.625,75.214L198.759,104.581Z" style="fill:rgb(35,31,32);"/>
            <path d="M326.759,110.252C326.313,113.219 325.164,116.193 323.101,118.234C321.019,120.292 318.155,121.562 315.007,121.562C311.825,121.562 308.939,120.267 306.851,118.173L306.848,118.173C304.673,115.796 303.465,113.277 303.465,109.991C303.465,108.177 303.887,106.451 304.642,104.914C305.395,103.364 306.87,101.7 307.67,100.864L328.499,79.74C328.98,79.241 329.78,79.229 330.271,79.716C330.594,80.031 330.709,80.475 330.62,80.882L326.759,110.252Z" style="fill:rgb(35,31,32);"/>
            <path d="M359.674,60.557C359.224,63.528 358.075,66.501 356.012,68.539C353.928,70.602 351.068,71.873 347.915,71.873C344.741,71.873 341.854,70.574 339.766,68.482L339.762,68.482C337.583,66.109 336.38,63.584 336.38,60.3C336.38,58.487 336.8,56.761 337.553,55.223C338.304,53.674 339.781,52.008 340.585,51.172L361.413,30.046C361.896,29.548 362.693,29.542 363.188,30.028C363.506,30.341 363.622,30.782 363.534,31.19L359.674,60.557Z" style="fill:rgb(35,31,32);"/>
            <path d="M400.905,112.919C400.455,115.887 399.306,118.858 397.241,120.899C395.16,122.957 392.3,124.232 389.148,124.232C385.963,124.232 383.075,122.935 380.992,120.843L380.986,120.843C378.808,118.463 377.604,115.943 377.604,112.658C377.604,110.845 378.028,109.122 378.78,107.578C379.537,106.029 381.013,104.367 381.812,103.533L402.638,82.404C403.122,81.909 403.919,81.899 404.418,82.386C404.729,82.697 404.849,83.139 404.762,83.552L400.905,112.919Z" style="fill:rgb(35,31,32);"/>
            <path d="M239.648,32.881C239.204,35.845 238.053,38.82 235.99,40.862C233.911,42.92 231.044,44.194 227.893,44.194C224.718,44.194 221.834,42.899 219.742,40.805L219.74,40.805C217.561,38.424 216.357,35.904 216.357,32.62C216.357,30.81 216.775,29.086 217.53,27.543C218.282,25.992 219.763,24.331 220.56,23.494L241.388,2.368C241.873,1.872 242.668,1.861 243.17,2.348C243.482,2.66 243.603,3.102 243.515,3.514L239.648,32.881Z" style="fill:rgb(35,31,32);"/>
            <path d="M159.856,48.888C159.41,51.856 158.26,54.829 156.196,56.868C154.119,58.927 151.253,60.203 148.104,60.203C144.923,60.203 142.042,58.903 139.949,56.811L139.942,56.811C137.77,54.434 136.569,51.912 136.569,48.628C136.569,46.816 136.983,45.09 137.74,43.553C138.49,42 139.974,40.335 140.766,39.5L161.6,18.375C162.083,17.877 162.881,17.867 163.373,18.356C163.695,18.67 163.805,19.11 163.718,19.519L159.856,48.888Z" style="fill:rgb(35,31,32);"/>
        </g>
    </g>
</svg>
