<?xml version="1.0" encoding="UTF-8" standalone="no"?>
<!DOCTYPE svg PUBLIC "-//W3C//DTD SVG 1.1//EN" "http://www.w3.org/Graphics/SVG/1.1/DTD/svg11.dtd">
<svg width="100%" height="100%" viewBox="0 0 399 393" version="1.1" xmlns="http://www.w3.org/2000/svg" xmlns:xlink="http://www.w3.org/1999/xlink" xml:space="preserve" xmlns:serif="http://www.serif.com/" style="fill-rule:evenodd;clip-rule:evenodd;stroke-linejoin:round;stroke-miterlimit:2;">
    <g id="Artboard1" transform="matrix(1,0,0,1,-58.0442,0)">
        <rect x="58.044" y="0" width="398.956" height="392.974" style="fill:none;"/>
        <g transform="matrix(1,0,0,1,0.044164,0)">
            <path d="M233.632,39.553C233.632,60.984 216.259,78.356 194.829,78.356C173.398,78.356 156.026,60.984 156.026,39.553C156.026,18.123 173.398,0.75 194.829,0.75C216.259,0.75 233.632,18.123 233.632,39.553Z" style="fill:rgb(35,31,32);fill-rule:nonzero;"/>
            <path d="M402.764,96.027C402.764,85.422 392.806,79.928 380.381,75.568L281.384,35.044C277.695,33.541 272.935,31.72 268.137,31.72C260.788,31.72 254.267,34.681 250.18,39.258L249.282,40.35C247.697,42.414 232.613,76.171 232.613,76.171L183.899,198.409L183.353,200.23C181.849,211.707 193.159,218.994 202.918,218.994C210.389,218.994 216.771,214.356 219.357,207.803L259.209,111.876L339.73,145.396L340.824,353.986C340.824,368.976 354.69,381.129 371.793,381.129C388.896,381.129 402.689,368.293 402.689,353.302C402.689,351.33 402.764,96.027 402.764,96.027Z" style="fill:rgb(35,31,32);fill-rule:nonzero;"/>
            <path d="M226.535,210.714C222.661,220.452 213.398,226.74 202.918,226.74C194.695,226.74 186.358,223.061 181.162,217.14C176.765,212.129 174.816,205.766 175.672,199.224L175.754,198.603L176.578,195.857L190.082,161.974L89.896,161.974L89.896,370.197L277.9,370.197L277.9,161.974L246.785,161.974L226.535,210.714Z" style="fill:rgb(35,31,32);fill-rule:nonzero;"/>
            <path d="M374.542,54.016L365.856,50.479L383.552,7.026L392.237,10.564L374.542,54.016Z" style="fill:rgb(35,31,32);fill-rule:nonzero;"/>
            <path d="M357.406,43.363L348.798,47.084L330.187,4.016L338.795,0.295L357.406,43.363Z" style="fill:rgb(35,31,32);fill-rule:nonzero;"/>
            <path d="M389.704,63.647L385.815,55.114L428.506,35.653L432.396,44.187L389.704,63.647Z" style="fill:rgb(35,31,32);fill-rule:nonzero;"/>
        </g>
    </g>
</svg>
