<?xml version="1.0" encoding="UTF-8" standalone="no"?>
<!DOCTYPE svg PUBLIC "-//W3C//DTD SVG 1.1//EN" "http://www.w3.org/Graphics/SVG/1.1/DTD/svg11.dtd">
<svg width="100%" height="100%" viewBox="0 0 459 444" version="1.1" xmlns="http://www.w3.org/2000/svg" xmlns:xlink="http://www.w3.org/1999/xlink" xml:space="preserve" xmlns:serif="http://www.serif.com/" style="fill-rule:evenodd;clip-rule:evenodd;stroke-linejoin:round;stroke-miterlimit:2;">
    <g id="Artboard1" transform="matrix(1,0,0,1,-54.46,-27.3401)">
        <rect x="54.46" y="27.34" width="458.008" height="443.52" style="fill:none;"/>
        <clipPath id="_clip1">
            <rect x="54.46" y="27.34" width="458.008" height="443.52"/>
        </clipPath>
        <g clip-path="url(#_clip1)">
            <g transform="matrix(1,0,0,1,0.459999,0.340129)">
                <rect x="0" y="0.07" width="566.93" height="566.93" style="fill:white;fill-rule:nonzero;"/>
                <path d="M181.548,180.823C180.271,178.789 177.706,174.464 176.824,174.605C176.427,174.669 176.532,174.811 175.829,174.855C165.953,175.446 155.789,174.855 145.487,174.855L54.46,174.855C68.438,184.172 85.22,192.841 99.724,202.46C94.326,210.627 89.372,219.907 83.558,229.569C78.11,238.623 70.706,246.848 69.88,259.164C69.18,269.614 71.603,275.757 75.351,282.791C88.765,307.966 101.604,331.957 114.648,356.655C119.926,366.651 125.98,376.419 130.067,386.501C139.031,408.614 155.177,422.562 184.533,422.562L275.31,422.562L275.31,307.164L164.14,307.164C173.835,289.421 184.006,272.151 194.232,254.936C211.819,265.122 229.338,276.702 246.708,286.273C225.051,252.301 203.354,215.552 181.548,180.823ZM358.378,213.901C376.277,246.407 395.972,278.439 413.342,310.647C393.008,310.834 373.445,310.251 353.153,310.398C353.423,289.966 354.368,267.756 354.398,248.718C333.786,287.545 312.669,325.873 291.973,364.616C311.964,398.679 331.736,434.347 351.663,468.325C352.293,469.402 353.063,471.174 353.652,470.812C353.796,453.299 354.324,436.167 354.398,418.583C366.474,418.947 380.054,418.268 392.449,418.833C399.277,419.143 405.198,419.436 410.606,418.334C426.916,415.014 433.895,404.091 441.691,391.722C459.268,363.852 476.21,337.083 493.673,309.154C500.844,297.684 511.216,286.633 512.326,270.107C513.838,247.554 502.981,234.866 495.165,221.362C482.621,199.697 470.715,178.197 458.355,156.698C458.105,156.699 458.06,156.497 457.859,156.449C424.74,175.641 391.523,194.736 358.378,213.901ZM397.175,58.461C390.967,47.938 384.753,36.488 372.056,32.596C364.741,30.355 355.961,30.109 345.942,30.109C321.282,30.109 296.617,29.362 272.076,29.362C262.273,29.362 251.963,29.882 242.482,29.114C237.308,28.694 232.097,27.092 226.813,27.373C212.18,28.151 199.983,34.992 192.243,43.291C184.269,51.837 179.249,63.347 173.341,73.881C161.013,95.865 149.444,116.688 138.026,137.796C171.614,156.355 205.197,174.914 239,193.258C257.294,160.899 274.992,127.947 293.466,95.767C303.634,113.121 313.876,130.401 324.056,147.744C307.577,157.112 290.168,167.132 273.569,176.346C272.455,176.963 270.854,177.816 271.081,178.336C314.817,176.142 358.571,174.054 401.899,171.87C422.205,136.218 441.87,99.923 461.838,63.933C446.382,72.683 431.237,81.746 415.828,90.544C409.672,79.917 403.672,69.478 397.175,58.461Z" style="fill:white;"/>
                <path d="M412.596,102.979C406.551,92.446 399.964,81.974 393.195,70.399C387.244,60.222 381.693,45.629 369.816,41.549C360.919,38.492 347.961,39.063 336.242,39.063C312.39,39.063 289.094,38.567 265.362,38.316C276.93,49.447 284.78,64.777 293.964,78.358C297.113,83.017 299.575,88.218 302.419,93.031C313.888,112.449 325.683,131.938 336.74,151.227C327.23,156.475 317.639,161.639 308.637,167.393C338.327,165.658 366.428,164.601 396.428,162.916C410.185,138.373 424.45,113.01 437.466,88.554C429.231,93.421 420.988,98.276 412.596,102.979ZM287.745,86.316C282.438,77.872 276.607,68.6 270.833,59.456C265.263,50.632 258.212,41.961 247.455,39.063C245.425,38.516 242.524,38.285 239.746,37.819C237.216,37.395 234.381,36.753 232.036,36.575C215.671,35.333 204.681,43.345 197.216,51.498C193.806,55.224 191.675,60.127 189.01,64.928C176.289,87.845 162.046,112.65 150.461,134.316C179.004,149.627 206.975,165.51 235.518,180.823M415.828,90.544C431.237,81.746 446.382,72.683 461.838,63.933C441.87,99.923 422.205,136.218 401.899,171.87C358.571,174.054 314.817,176.142 271.081,178.336C270.854,177.816 272.455,176.963 273.569,176.346C290.168,167.132 307.577,157.112 324.056,147.744C313.876,130.401 303.634,113.121 293.466,95.767C274.992,127.947 257.294,160.899 239,193.258C205.197,174.914 171.614,156.355 138.026,137.796C149.444,116.688 161.013,95.865 173.341,73.881C179.249,63.347 184.269,51.837 192.243,43.291C199.983,34.992 212.18,28.151 226.813,27.373C232.097,27.092 237.308,28.694 242.482,29.114C251.963,29.882 262.273,29.362 272.076,29.362C296.617,29.362 321.282,30.109 345.942,30.109C355.961,30.109 364.741,30.355 372.056,32.596C384.753,36.488 390.967,47.938 397.175,58.461C403.672,69.478 409.672,79.917 415.828,90.544Z" style="fill:rgb(35,31,32);"/>
                <path d="M464.077,320.097C445.643,321.333 424.701,319.848 403.889,319.848C383.181,319.848 362.457,319.619 343.704,319.101C343.826,309.235 344.681,297.182 344.2,286.77C330.54,312.986 316.173,338.495 302.419,364.616C316.817,388.845 330.599,413.698 344.946,437.983C345.399,428.065 345.023,418.474 345.693,409.133C355.197,409.253 365.521,409.63 375.785,409.63C386.326,409.63 397.016,410.681 406.128,409.88C420.79,408.588 426.344,398.172 432.491,388.49C447.314,365.145 462.855,340.314 477.505,317.61C477.406,317.181 477.874,316.972 477.505,316.865C473.442,318.543 468.782,319.781 464.077,320.097ZM370.813,217.133C387.392,246.458 404.212,275.951 421.299,305.174C422.487,307.208 423.817,310.473 425.03,310.894C427.161,311.636 432.092,310.894 434.977,310.894C444.796,310.894 457.254,311.781 464.573,310.894C475.695,309.549 485.051,303.091 490.937,296.469C499.722,286.585 506.178,269.832 501.38,252.946C499.996,248.07 497.782,244.481 495.411,240.263C481.847,216.11 468.115,192.206 454.627,169.134C427.039,184.489 398.902,201.451 370.813,217.133ZM457.859,156.449C458.06,156.497 458.105,156.699 458.355,156.698C470.715,178.197 482.621,199.697 495.165,221.362C502.981,234.866 513.838,247.554 512.326,270.107C511.216,286.633 500.844,297.684 493.673,309.154C476.21,337.083 459.268,363.852 441.691,391.722C433.895,404.091 426.916,415.014 410.606,418.334C405.198,419.436 399.277,419.143 392.449,418.833C380.054,418.268 366.474,418.947 354.398,418.583C354.324,436.167 353.796,453.299 353.652,470.812C353.063,471.174 352.293,469.402 351.663,468.325C331.736,434.347 311.964,398.679 291.973,364.616C312.669,325.873 333.786,287.545 354.398,248.718C354.368,267.756 353.423,289.966 353.153,310.398C373.445,310.251 393.008,310.834 413.342,310.647C395.972,278.439 376.277,246.407 358.378,213.901C391.523,194.736 424.74,175.641 457.859,156.449Z" style="fill:rgb(35,31,32);"/>
                <path d="M144.74,339.992C140.119,347.877 135.177,355.961 135.291,366.605C135.472,383.875 144.841,398.309 155.187,405.401C163.388,411.025 173.625,413.361 187.02,413.361C212.665,413.359 239.151,413.57 266.356,413.112C266.075,380.978 266.074,348.565 266.108,316.118L158.917,316.118C154.156,323.489 149.758,331.436 144.74,339.992ZM112.16,198.978C104.51,212.352 96.412,225.261 88.781,238.274C86.248,242.594 83.005,246.984 81.073,251.454C76.038,263.101 80.987,274.126 85.299,282.295C99.059,308.35 113.147,334.625 126.833,359.641C128.203,347.212 135.498,338.088 141.01,328.553C157.778,299.545 173.79,271.047 191,242.252C200.353,247.49 209.641,254.118 218.854,258.667C205.348,237.059 191.561,214.993 178.066,193.01C176.551,190.54 173.837,184.451 171.849,183.807C169.687,183.107 165.103,183.807 161.404,183.807C137.57,183.807 108.241,183.809 87.539,183.807C95.298,189.312 104.252,193.623 112.16,198.978ZM246.708,286.273C229.338,276.702 211.819,265.122 194.232,254.936C184.006,272.151 173.835,289.421 164.14,307.164L275.31,307.164L275.31,422.562L184.533,422.562C155.177,422.562 139.031,408.614 130.067,386.501C125.98,376.419 119.926,366.651 114.648,356.655C101.604,331.957 88.765,307.966 75.351,282.791C71.603,275.757 69.18,269.614 69.88,259.164C70.706,246.848 78.11,238.623 83.558,229.569C89.372,219.907 94.326,210.627 99.724,202.46C85.22,192.841 68.438,184.172 54.46,174.855L145.487,174.855C155.789,174.855 165.953,175.446 175.829,174.855C176.532,174.811 176.427,174.669 176.824,174.605C177.706,174.464 180.271,178.789 181.548,180.823C203.354,215.552 225.051,252.301 246.708,286.273Z" style="fill:rgb(35,31,32);"/>
            </g>
        </g>
    </g>
</svg>
