<?xml version="1.0" encoding="UTF-8"?>
<svg width="512" height="512" viewBox="0 0 512 512" fill="none" xmlns="http://www.w3.org/2000/svg">
  <path d="M400 112C400 85.49 378.51 64 352 64C325.49 64 304 85.49 304 112C304 115.28 304.39 118.47 305.12 121.53L118.24 308.41C115.18 307.68 111.99 307.29 108.71 307.29C82.2 307.29 60.71 328.78 60.71 355.29C60.71 381.8 82.2 403.29 108.71 403.29C135.22 403.29 156.71 381.8 156.71 355.29C156.71 352.01 156.32 348.82 155.59 345.76L342.47 158.88C345.53 159.61 348.72 160 352 160C378.51 160 400 138.51 400 112Z" stroke="currentColor" stroke-width="32" stroke-linecap="round" stroke-linejoin="round"/>
</svg> 